<?xml version="1.0" standalone="no"?>
<!DOCTYPE svg PUBLIC "-//W3C//DTD SVG 20010904//EN"
 "http://www.w3.org/TR/2001/REC-SVG-20010904/DTD/svg10.dtd">
<svg version="1.0" xmlns="http://www.w3.org/2000/svg"
 width="300.000000pt" height="300.000000pt" viewBox="0 0 300.000000 300.000000"
 preserveAspectRatio="xMidYMid meet">
<metadata>
Created by potrace 1.10, written by Peter Selinger 2001-2011
</metadata>
<g transform="translate(0.000000,300.000000) scale(0.100000,-0.100000)"
fill="#000000" stroke="none">
<path d="M1443 2936 c-90 -41 -1132 -653 -1160 -681 -17 -19 -36 -51 -42 -72
-14 -54 -15 -1303 -1 -1370 6 -28 21 -59 33 -71 45 -41 1171 -684 1207 -689
20 -3 51 1 71 10 34 14 1051 601 1132 653 21 14 47 39 57 57 19 31 20 54 20
743 l-1 711 -28 27 c-15 14 -286 175 -602 357 -607 351 -618 356 -686 325z
m212 -89 c55 -32 120 -69 145 -83 25 -15 60 -35 78 -45 17 -11 47 -27 65 -38
792 -454 796 -456 776 -476 -17 -16 -390 -235 -401 -235 -4 0 -8 10 -8 21 0
24 -93 151 -138 189 -15 13 -47 41 -72 62 -63 55 -61 54 -145 98 -85 46 -211
89 -270 93 -22 2 -45 5 -50 9 -17 9 -259 6 -272 -4 -7 -5 -17 -7 -22 -3 -16 9
-147 -26 -228 -61 -17 -8 -36 -14 -41 -14 -6 0 -12 -3 -14 -7 -1 -5 -25 -19
-51 -32 -61 -31 -176 -131 -248 -216 -51 -59 -129 -198 -158 -280 -21 -60 -42
-156 -36 -166 4 -5 2 -15 -3 -22 -13 -15 -12 -258 0 -274 5 -7 7 -17 3 -22
-10 -17 45 -210 67 -235 4 -6 8 -16 8 -24 0 -8 11 -25 25 -38 l24 -22 -47 -30
c-59 -37 -296 -174 -340 -196 l-32 -17 0 697 c1 771 -2 738 65 782 19 12 39
22 45 22 5 0 10 5 10 10 0 6 4 10 9 10 5 0 42 20 82 44 246 145 301 176 309
176 6 0 10 4 10 9 0 5 8 11 18 14 21 7 135 70 171 96 14 10 51 31 81 48 74 40
112 63 195 113 162 100 187 111 240 107 39 -2 73 -16 150 -60z m71 -448 c100
-26 228 -86 307 -143 118 -84 290 -283 264 -304 -21 -17 -299 -174 -301 -170
-1 2 -12 19 -25 40 -34 57 -144 153 -213 187 -230 112 -479 71 -659 -108 -180
-180 -220 -428 -107 -661 43 -88 160 -205 248 -248 173 -84 372 -81 535 6 61
33 175 139 200 187 11 19 22 34 25 33 44 -21 299 -175 300 -182 0 -16 -88
-132 -146 -190 -117 -117 -269 -203 -434 -247 -120 -32 -319 -32 -440 -1 -334
88 -590 341 -677 671 -36 133 -37 326 -5 451 71 271 246 486 497 613 187 94
428 119 631 66z m995 -241 c3 -56 -3 -484 -7 -488 -14 -14 -35 38 -30 74 6 48
-7 76 -35 76 -11 0 -17 5 -14 10 4 6 -12 10 -42 10 -35 0 -44 -3 -33 -10 13
-8 12 -10 -3 -10 -10 0 -20 -7 -23 -15 -4 -8 -10 -12 -15 -9 -5 2 -18 0 -29
-6 -18 -10 -21 -9 -18 7 2 13 -4 19 -21 21 -19 3 -21 6 -10 13 9 6 -4 9 -39 9
-38 0 -51 -3 -46 -12 5 -7 2 -9 -9 -5 -19 7 -42 -25 -51 -75 -7 -36 -23 -51
-61 -52 -29 -2 -64 -27 -58 -43 3 -7 0 -13 -6 -13 -6 0 -11 -18 -11 -41 0 -22
4 -38 9 -35 5 3 11 -3 14 -14 3 -11 14 -20 25 -20 14 0 19 -7 20 -30 1 -25 -3
-30 -24 -30 -17 0 -24 -5 -24 -20 0 -11 -4 -20 -10 -20 -5 0 -10 -18 -10 -41
0 -28 4 -38 12 -33 8 5 9 2 5 -9 -3 -10 -2 -17 4 -17 16 0 27 -43 18 -75 -6
-19 -5 -31 1 -33 5 -2 10 -10 10 -17 0 -21 41 -45 75 -45 37 1 103 48 99 73
-4 30 14 19 21 -13 8 -35 52 -63 93 -58 26 3 87 38 67 38 -6 0 -5 4 1 8 6 4
15 25 20 47 9 36 13 40 44 43 19 2 47 13 62 23 l28 20 2 -228 c2 -336 4 -309
-32 -343 -27 -26 -63 -48 -260 -160 -41 -23 -127 -73 -190 -110 -63 -37 -187
-109 -275 -160 -88 -51 -208 -122 -268 -157 -120 -72 -166 -93 -199 -93 -23 0
-131 50 -193 89 -16 10 -86 51 -155 91 -69 40 -195 113 -280 162 -85 50 -200
116 -255 148 -291 166 -312 180 -301 198 4 8 234 145 349 209 4 3 22 -12 40
-33 131 -155 255 -259 381 -320 122 -60 242 -87 399 -89 75 -2 156 2 180 7 23
5 51 11 62 14 103 21 247 89 346 164 120 90 252 246 252 298 0 34 -28 56 -174
142 -114 68 -121 71 -154 60 -19 -6 -45 -27 -60 -48 -102 -139 -298 -231 -463
-217 -103 8 -186 37 -270 92 -74 49 -145 125 -140 151 2 8 75 56 163 107 88
51 214 124 280 162 360 211 471 273 482 273 7 0 13 5 13 11 0 6 8 8 19 4 23
-7 234 114 301 173 47 41 365 232 387 232 7 0 13 -6 14 -12z m-1080 -134 c97
-28 179 -80 262 -166 62 -65 75 -84 65 -93 -22 -20 -916 -536 -939 -542 -13
-4 -20 -2 -16 4 3 5 -7 47 -23 94 -88 250 14 516 249 652 31 17 81 40 111 49
73 22 219 23 291 2z m819 -226 c-1 -14 -17 -91 -26 -120 -5 -15 1 -18 40 -18
l45 0 12 75 12 75 58 0 c33 0 59 -4 59 -9 0 -16 -19 -106 -26 -125 -7 -17 -4
-18 24 -13 l32 7 0 -60 0 -60 -39 0 c-37 0 -39 -2 -45 -36 -4 -19 -10 -42 -13
-50 -4 -11 6 -14 46 -14 l51 0 0 -55 0 -55 -59 0 -59 0 -11 -50 c-6 -28 -11
-60 -11 -70 0 -18 -7 -20 -64 -20 l-64 0 14 58 c19 83 20 82 -31 82 -38 0 -45
-3 -45 -20 0 -10 -5 -42 -11 -70 l-11 -50 -59 0 -59 0 6 28 c3 15 10 43 15 62
13 49 12 50 -21 50 -30 0 -30 1 -30 55 l0 55 39 0 c46 0 46 1 56 58 l7 42 -51
0 -51 0 0 55 0 55 63 0 63 0 13 75 12 75 60 0 c41 0 59 -4 59 -12z m260 -293
l0 -44 -32 6 c-41 7 -41 7 -33 32 5 16 30 36 63 50 1 1 2 -19 2 -44z"/>
<path d="M2407 1543 c-3 -5 -8 -27 -12 -50 l-7 -43 44 0 44 0 10 50 11 50 -43
0 c-24 0 -45 -3 -47 -7z"/>
</g>
</svg>
